<?xml version="1.0" standalone="no"?>
<svg viewBox="0 0 200 200" xmlns="http://www.w3.org/2000/svg">
  <path fill="#3A6EA8" d="M47,-67.3C60,-64.9,69,-50.2,69.1,-35.7C69.1,-21.3,60.3,-6.9,53.4,4.3C46.5,15.5,41.6,23.6,37.2,36.6C32.8,49.6,28.9,67.4,21.3,67.3C13.7,67.2,2.3,49.1,-8.1,40.3C-18.5,31.5,-28,31.9,-37.7,28.4C-47.4,24.8,-57.5,17.3,-60.5,7.6C-63.6,-2,-59.7,-13.7,-54.2,-24.3C-48.7,-34.9,-41.6,-44.3,-32.3,-48.5C-23,-52.7,-11.5,-51.6,2.8,-55.9C17,-60.2,34.1,-69.8,47,-67.3Z" transform="translate(100 100)" />
</svg>
